<?xml version="1.0" encoding="utf-8"?>
<!-- Generator: Adobe Illustrator 19.2.0, SVG Export Plug-In . SVG Version: 6.00 Build 0)  -->
<svg version="1.1" id="Layer_1" xmlns="http://www.w3.org/2000/svg" xmlns:xlink="http://www.w3.org/1999/xlink" x="0px" y="0px"
	 viewBox="0 0 35.8 35.8" style="enable-background:new 0 0 35.8 35.8;" xml:space="preserve">
<style type="text/css">
	.st0{fill:#56376D;}
	.st1{fill:#3D2950;}
	.st2{fill:#E0E0DE;}
	.st3{fill:#89A33D;}
	.st4{fill:#708E3B;}
	.st5{fill:#57376D;}
	.st6{fill:#3D294F;}
	.st7{fill:#E0DFDE;}
	.st8{fill:#DFDFDE;}
</style>
<path class="st0" d="M17.9,0C8,0,0,8,0,17.9c0,9.9,8,17.9,17.9,17.9c0.7,0,1.4,0,2-0.1c8.3-0.9,14.9-7.6,15.8-15.9
	c0.1-0.6,0.1-1.2,0.1-1.8C35.8,8,27.8,0,17.9,0z"/>
<g>
	<path class="st1" d="M35.7,19.7c0.1-0.6,0.1-1.2,0.1-1.8c0-0.1,0-0.2,0-0.4c-4.7-3-9.6-5.6-14.6-8.9c-0.3,0-2.2,0.3-2.6,0.3
		c0,1,3.7,3.4,3.7,4.4c0.1,6,1.5,8.7-4.9,10.9c-1.1,0.4-1.3,1.7-0.8,3.6c3.5,2.8,4.1,3.8,7.2,6.9C30.2,32.5,35,26.7,35.7,19.7z"/>
</g>
<g>
	<path class="st2" d="M24.3,17.1l-4.9,10.4c-0.3,0.6-0.9,1-1.5,1s-1.3-0.4-1.5-1l-4.9-10.4c-0.3-0.7-0.4-1.6-0.4-2.4
		c0-3.8,3.1-6.9,6.9-6.9s6.9,3.1,6.9,6.9C24.7,15.5,24.7,16.4,24.3,17.1z M17.9,11.3c-1.9,0-3.4,1.5-3.4,3.4s1.5,3.4,3.4,3.4
		s3.4-1.5,3.4-3.4S19.8,11.3,17.9,11.3z"/>
</g>
</svg>
